<?xml version="1.0" standalone="no"?>
<!DOCTYPE svg PUBLIC "-//W3C//DTD SVG 20010904//EN"
 "http://www.w3.org/TR/2001/REC-SVG-20010904/DTD/svg10.dtd">
<svg version="1.0" xmlns="http://www.w3.org/2000/svg"
 width="1024.000000pt" height="1024.000000pt" viewBox="0 0 1024.000000 1024.000000"
 preserveAspectRatio="xMidYMid meet">

<g transform="translate(0.000000,1024.000000) scale(0.100000,-0.100000)"
fill="#000000" stroke="none">
<path d="M4812 9249 c-502 -33 -1031 -178 -1487 -406 -468 -234 -893 -557
-1221 -925 -357 -402 -591 -772 -777 -1234 -202 -498 -292 -913 -317 -1459
-12 -267 -3 -3302 11 -3483 19 -263 104 -439 279 -582 79 -63 199 -127 292
-154 32 -9 102 -21 155 -26 124 -12 3100 -12 3583 0 595 15 872 56 1280 191
271 90 591 242 815 388 105 68 358 261 430 327 11 11 58 53 104 94 112 100
381 390 416 449 6 9 49 69 96 131 266 356 486 824 623 1325 91 331 132 626
142 1030 10 377 -16 684 -86 1038 -31 154 -43 200 -108 408 -129 417 -401 940
-663 1273 -181 230 -433 496 -604 638 -104 86 -319 250 -385 292 -185 121
-430 256 -600 331 -58 25 -119 52 -135 60 -17 7 -89 34 -160 60 -545 194
-1110 273 -1683 234z m658 -1293 c353 -43 667 -140 980 -303 731 -381 1267
-1046 1465 -1818 86 -336 113 -672 80 -1005 -30 -316 -86 -544 -214 -870 l-41
-105 -2616 0 c-2440 0 -2616 2 -2625 17 -15 26 -83 203 -118 305 -211 618
-195 1334 46 1956 37 96 163 355 209 429 213 346 480 636 804 874 120 89 404
252 511 294 29 12 72 30 97 41 197 90 547 171 857 199 123 12 413 4 565 -14z
m735 -5223 c73 -26 158 -113 179 -183 34 -113 7 -220 -74 -301 -84 -84 -12
-79 -1196 -79 -1011 0 -1044 1 -1088 20 -25 10 -65 37 -90 60 -132 121 -115
348 33 446 84 55 34 53 1151 54 961 0 1039 -1 1085 -17z"/>
<path d="M5035 7327 c-44 -44 -47 -77 -43 -397 3 -236 5 -258 23 -290 30 -50
89 -70 147 -50 22 8 51 28 62 43 20 27 21 42 24 330 3 274 2 305 -14 335 -23
42 -60 62 -120 62 -39 0 -51 -5 -79 -33z"/>
<path d="M3781 6923 c-64 -31 -89 -110 -56 -173 37 -72 289 -441 316 -464 57
-48 162 -24 196 44 16 31 17 85 2 113 -37 70 -307 461 -330 477 -33 24 -82 25
-128 3z"/>
<path d="M6311 6893 c-26 -27 -84 -106 -129 -178 -46 -71 -108 -166 -139 -210
-50 -72 -55 -83 -50 -121 11 -102 128 -160 207 -104 30 21 260 361 313 463 28
52 29 60 18 96 -6 22 -27 53 -46 70 -29 25 -44 31 -82 31 -43 0 -51 -4 -92
-47z"/>
<path d="M6483 5894 c-158 -81 -407 -207 -553 -280 -146 -74 -335 -170 -420
-214 -132 -68 -156 -77 -170 -66 -38 33 -114 51 -221 51 -101 0 -108 -1 -180
-37 -116 -58 -189 -140 -229 -259 -18 -53 -21 -81 -18 -169 3 -96 6 -112 37
-175 150 -304 571 -337 755 -60 40 60 76 152 76 195 0 38 9 45 424 344 44 32
110 82 146 111 36 29 99 76 140 105 41 30 191 141 333 248 275 208 286 220
264 285 -9 28 -59 67 -84 67 -7 0 -142 -66 -300 -146z"/>
<path d="M2968 5968 c-67 -39 -88 -126 -45 -188 14 -21 86 -71 212 -148 310
-189 312 -189 375 -157 47 24 70 62 70 115 0 79 -19 95 -332 284 -98 59 -192
109 -210 112 -23 3 -45 -2 -70 -18z"/>
<path d="M7164 5976 c-28 -12 -217 -130 -401 -250 -78 -50 -103 -84 -103 -140
0 -42 43 -96 91 -116 47 -20 90 -4 231 84 67 43 166 104 218 135 53 33 105 73
118 91 42 62 23 149 -41 189 -39 24 -69 26 -113 7z"/>
</g>
</svg>
